<svg width="23" height="15" viewBox="0 0 23 15" fill="none" xmlns="http://www.w3.org/2000/svg">
<path fill-rule="evenodd" clip-rule="evenodd" d="M22.5165 0.716538C22.1264 0.261923 21.5547 0 20.9502 0H3.93481C2.93081 0 2.08027 0.707308 1.91274 1.68231L0.0289128 12.6438C-0.0718393 13.2312 0.0933472 13.8288 0.483468 14.2835C0.87359 14.7381 1.44413 15 2.04981 15H19.0652C20.0692 15 20.9197 14.2927 21.0873 13.3177L22.9711 2.35615C23.0718 1.76885 22.9067 1.17115 22.5165 0.716538ZM20.0036 5.25L12.5643 8.28462C12.248 8.42308 11.8966 8.48077 11.5568 8.48077C11.1585 8.48077 10.7602 8.4 10.397 8.21538L3.63724 4.93846L3.94184 3.16154L11.1702 6.66923C11.3928 6.77308 11.6623 6.78462 11.8966 6.69231L20.3433 3.24231L20.0036 5.25ZM22.5927 3.98077L22.6864 3.40385C22.7333 3.61154 22.6981 3.80769 22.5927 3.98077Z" fill="white"/>
</svg>
